<svg xmlns="http://www.w3.org/2000/svg" xmlns:xlink="http://www.w3.org/1999/xlink" width="500" zoomAndPan="magnify" viewBox="0 0 375 374.999991" height="500" preserveAspectRatio="xMidYMid meet" version="1.0"><defs><g/><clipPath id="806ff535dd"><path d="M 1.003906 1 L 374 1 L 374 373.988281 L 1.003906 373.988281 Z M 1.003906 1 " clip-rule="nonzero"/></clipPath><clipPath id="2030339de2"><path d="M 208.191406 10.390625 L 208.316406 10.53125 C 220.765625 24.679688 240.503906 29.941406 258.339844 23.867188 L 258.417969 23.84375 C 265.859375 21.308594 274.027344 22.09375 280.847656 25.996094 C 287.671875 29.898438 292.488281 36.542969 294.074219 44.242188 C 297.878906 62.691406 312.296875 77.109375 330.746094 80.914062 C 338.445312 82.503906 345.089844 87.320312 348.992188 94.140625 C 352.894531 100.960938 353.679688 109.132812 351.148438 116.570312 L 351.121094 116.648438 C 345.050781 134.484375 350.3125 154.226562 364.457031 166.675781 L 364.601562 166.800781 C 370.546875 172.03125 373.953125 179.566406 373.953125 187.488281 C 373.953125 195.40625 370.546875 202.941406 364.601562 208.175781 L 364.457031 208.300781 C 350.3125 220.75 345.050781 240.488281 351.121094 258.324219 L 351.148438 258.402344 C 353.679688 265.84375 352.894531 274.011719 348.992188 280.832031 C 345.089844 287.65625 338.445312 292.472656 330.746094 294.058594 C 312.296875 297.863281 297.878906 312.28125 294.074219 330.730469 C 292.488281 338.429688 287.671875 345.074219 280.847656 348.976562 C 274.027344 352.878906 265.859375 353.664062 258.417969 351.132812 L 258.339844 351.105469 C 240.503906 345.035156 220.765625 350.296875 208.316406 364.441406 L 208.191406 364.585938 C 202.957031 370.53125 195.421875 373.9375 187.503906 373.9375 C 179.582031 373.9375 172.046875 370.53125 166.816406 364.585938 L 166.691406 364.441406 C 154.242188 350.296875 134.5 345.035156 116.664062 351.105469 L 116.585938 351.132812 C 109.148438 353.664062 100.976562 352.878906 94.15625 348.976562 C 87.335938 345.074219 82.519531 338.429688 80.929688 330.730469 C 77.125 312.28125 62.707031 297.863281 44.257812 294.058594 C 36.5625 292.472656 29.914062 287.65625 26.011719 280.832031 C 22.109375 274.011719 21.324219 265.84375 23.859375 258.402344 L 23.882812 258.324219 C 29.957031 240.488281 24.695312 220.75 10.546875 208.300781 L 10.40625 208.175781 C 4.460938 202.941406 1.054688 195.40625 1.054688 187.488281 C 1.054688 179.566406 4.460938 172.03125 10.40625 166.800781 L 10.546875 166.675781 C 24.695312 154.226562 29.957031 134.484375 23.882812 116.648438 L 23.859375 116.570312 C 21.324219 109.132812 22.109375 100.960938 26.011719 94.140625 C 29.914062 87.320312 36.5625 82.503906 44.257812 80.914062 C 62.707031 77.109375 77.125 62.691406 80.929688 44.242188 C 82.519531 36.542969 87.335938 29.898438 94.15625 25.996094 C 100.976562 22.09375 109.148438 21.308594 116.585938 23.84375 L 116.664062 23.867188 C 134.5 29.941406 154.242188 24.679688 166.691406 10.53125 L 166.816406 10.390625 C 172.046875 4.445312 179.582031 1.039062 187.503906 1.039062 C 195.421875 1.039062 202.957031 4.445312 208.191406 10.390625 Z M 208.191406 10.390625 " clip-rule="nonzero"/></clipPath><clipPath id="801c865bd2"><path d="M 0.00390625 0 L 373 0 L 373 372.988281 L 0.00390625 372.988281 Z M 0.00390625 0 " clip-rule="nonzero"/></clipPath><clipPath id="1fd8d3f7b1"><path d="M 207.191406 9.390625 L 207.316406 9.53125 C 219.765625 23.679688 239.503906 28.941406 257.339844 22.867188 L 257.417969 22.84375 C 264.859375 20.308594 273.027344 21.09375 279.847656 24.996094 C 286.671875 28.898438 291.488281 35.542969 293.074219 43.242188 C 296.878906 61.691406 311.296875 76.109375 329.746094 79.914062 C 337.445312 81.503906 344.089844 86.320312 347.992188 93.140625 C 351.894531 99.960938 352.679688 108.132812 350.148438 115.570312 L 350.121094 115.648438 C 344.050781 133.484375 349.3125 153.226562 363.457031 165.675781 L 363.601562 165.800781 C 369.546875 171.03125 372.953125 178.566406 372.953125 186.488281 C 372.953125 194.40625 369.546875 201.941406 363.601562 207.175781 L 363.457031 207.300781 C 349.3125 219.75 344.050781 239.488281 350.121094 257.324219 L 350.148438 257.402344 C 352.679688 264.84375 351.894531 273.011719 347.992188 279.832031 C 344.089844 286.65625 337.445312 291.472656 329.746094 293.058594 C 311.296875 296.863281 296.878906 311.28125 293.074219 329.730469 C 291.488281 337.429688 286.671875 344.074219 279.847656 347.976562 C 273.027344 351.878906 264.859375 352.664062 257.417969 350.132812 L 257.339844 350.105469 C 239.503906 344.035156 219.765625 349.296875 207.316406 363.441406 L 207.191406 363.585938 C 201.957031 369.53125 194.421875 372.9375 186.503906 372.9375 C 178.582031 372.9375 171.046875 369.53125 165.816406 363.585938 L 165.691406 363.441406 C 153.242188 349.296875 133.5 344.035156 115.664062 350.105469 L 115.585938 350.132812 C 108.148438 352.664062 99.976562 351.878906 93.15625 347.976562 C 86.335938 344.074219 81.519531 337.429688 79.929688 329.730469 C 76.125 311.28125 61.707031 296.863281 43.257812 293.058594 C 35.5625 291.472656 28.914062 286.65625 25.011719 279.832031 C 21.109375 273.011719 20.324219 264.84375 22.859375 257.402344 L 22.882812 257.324219 C 28.957031 239.488281 23.695312 219.75 9.546875 207.300781 L 9.40625 207.175781 C 3.460938 201.941406 0.0546875 194.40625 0.0546875 186.488281 C 0.0546875 178.566406 3.460938 171.03125 9.40625 165.800781 L 9.546875 165.675781 C 23.695312 153.226562 28.957031 133.484375 22.882812 115.648438 L 22.859375 115.570312 C 20.324219 108.132812 21.109375 99.960938 25.011719 93.140625 C 28.914062 86.320312 35.5625 81.503906 43.257812 79.914062 C 61.707031 76.109375 76.125 61.691406 79.929688 43.242188 C 81.519531 35.542969 86.335938 28.898438 93.15625 24.996094 C 99.976562 21.09375 108.148438 20.308594 115.585938 22.84375 L 115.664062 22.867188 C 133.5 28.941406 153.242188 23.679688 165.691406 9.53125 L 165.816406 9.390625 C 171.046875 3.445312 178.582031 0.0390625 186.503906 0.0390625 C 194.421875 0.0390625 201.957031 3.445312 207.191406 9.390625 Z M 207.191406 9.390625 " clip-rule="nonzero"/></clipPath><clipPath id="fe61d2759b"><rect x="0" width="373" y="0" height="373"/></clipPath><clipPath id="ef855547c2"><rect x="0" width="268" y="0" height="331"/></clipPath></defs><g clip-path="url(#806ff535dd)"><g clip-path="url(#2030339de2)"><g transform="matrix(1, 0, 0, 1, 1, 1)"><g clip-path="url(#fe61d2759b)"><g clip-path="url(#801c865bd2)"><g clip-path="url(#1fd8d3f7b1)"><rect x="-83.5" width="540" fill="#6e79db" height="539.999987" y="-83.499998" fill-opacity="1"/></g></g></g></g></g></g><g transform="matrix(1, 0, 0, 1, 64, 39)"><g clip-path="url(#ef855547c2)"><g fill="#ffffff" fill-opacity="1"><g transform="translate(1.032537, 248.078606)"><g><path d="M 137.28125 -231.015625 L 220.125 -32.34375 C 223.425781 -24.644531 226.832031 -17.601562 230.34375 -11.21875 C 233.863281 -4.84375 235.957031 -1.101562 236.625 0 L 196.6875 0 L 117.8125 -189.09375 C 115.832031 -193.9375 113.25 -200.039062 110.0625 -207.40625 C 106.875 -214.78125 103.738281 -220.890625 100.65625 -225.734375 C 98.457031 -214.734375 94.332031 -203.070312 88.28125 -190.75 C 82.226562 -178.425781 75.351562 -165.9375 67.65625 -153.28125 C 59.957031 -140.632812 52.53125 -128.257812 45.375 -116.15625 C 38.226562 -104.0625 32.34375 -92.625 27.71875 -81.84375 C 21.78125 -67.757812 19.03125 -56.425781 19.46875 -47.84375 C 19.90625 -39.269531 22.597656 -33.660156 27.546875 -31.015625 C 32.503906 -28.378906 38.941406 -28.929688 46.859375 -32.671875 C 51.703125 -35.085938 56.875 -38.660156 62.375 -43.390625 C 67.875 -48.128906 73.484375 -53.410156 79.203125 -59.234375 C 84.921875 -65.066406 90.3125 -70.84375 95.375 -76.5625 C 100.4375 -82.28125 104.945312 -87.234375 108.90625 -91.421875 C 113.082031 -95.816406 117.8125 -99.164062 123.09375 -101.46875 C 128.375 -103.78125 133.65625 -103.726562 138.9375 -101.3125 C 141.132812 -100.4375 143.609375 -98.734375 146.359375 -96.203125 C 149.109375 -93.671875 151.800781 -91.03125 154.4375 -88.28125 C 157.082031 -85.53125 159.285156 -83.273438 161.046875 -81.515625 C 156.203125 -82.609375 150.8125 -81.671875 144.875 -78.703125 C 138.9375 -75.734375 133.21875 -71.832031 127.71875 -67 C 121.550781 -61.71875 115.164062 -55.332031 108.5625 -47.84375 C 101.96875 -40.363281 95.148438 -32.9375 88.109375 -25.5625 C 81.066406 -18.195312 73.695312 -12.09375 66 -7.25 C 58.300781 -2.414062 50.378906 0 42.234375 0 C 24.859375 0 13.203125 -7.039062 7.265625 -21.125 C 4.179688 -28.820312 3.1875 -37.070312 4.28125 -45.875 C 5.382812 -54.675781 7.859375 -63.640625 11.703125 -72.765625 C 15.554688 -81.898438 20.125 -90.863281 25.40625 -99.65625 C 30.6875 -108.457031 36.078125 -116.765625 41.578125 -124.578125 C 47.078125 -132.390625 51.804688 -139.375 55.765625 -145.53125 C 58.847656 -150.15625 62.644531 -156.207031 67.15625 -163.6875 C 71.664062 -171.164062 76.226562 -179.140625 80.84375 -187.609375 C 85.46875 -196.078125 89.375 -204.160156 92.5625 -211.859375 C 95.757812 -219.566406 97.46875 -225.953125 97.6875 -231.015625 Z M 137.28125 -231.015625 "/></g></g></g></g></g></svg>