<svg xmlns="http://www.w3.org/2000/svg" viewBox="0 0 24 24" fill="none" shape-rendering="auto">
    <metadata xmlns:rdf="http://www.w3.org/1999/02/22-rdf-syntax-ns#"
        xmlns:xsi="http://www.w3.org/2001/XMLSchema-instance" xmlns:dc="http://purl.org/dc/elements/1.1/"
        xmlns:dcterms="http://purl.org/dc/terms/">
        <rdf:RDF>
            <rdf:Description>
                <dc:title>Bootstrap Icons</dc:title>
                <dc:creator>The Bootstrap Authors</dc:creator>
                <dc:source xsi:type="dcterms:URI">https://github.com/twbs/icons</dc:source>
                <dcterms:license xsi:type="dcterms:URI">https://github.com/twbs/icons/blob/main/LICENSE
                </dcterms:license>
                <dc:rights>„Bootstrap Icons” (https://github.com/twbs/icons) by „The Bootstrap Authors”, licensed under
                    „MIT” (https://github.com/twbs/icons/blob/main/LICENSE)</dc:rights>
            </rdf:Description>
        </rdf:RDF>
    </metadata>
    <mask id="viewboxMask">
        <rect width="24" height="24" rx="12" ry="12" x="0" y="0" fill="#fff" />
    </mask>
    <g mask="url(#viewboxMask)">
        <rect fill="url(#backgroundLinear)" width="24" height="24" x="0" y="0" />
        <defs>
            <linearGradient id="backgroundLinear" gradientTransform="rotate(199 0.5 0.5)">
                <stop stop-color="#80cbc4" />
                <stop offset="1" stop-color="#e6ee9c" />
            </linearGradient>
        </defs>
        <g transform="translate(4 4)">
            <path
                d="M11.251.068a.5.5 0 0 1 .227.58L9.677 6.5H13a.5.5 0 0 1 .364.843l-8 8.5a.5.5 0 0 1-.842-.49L6.323 9.5H3a.5.5 0 0 1-.364-.843l8-8.5a.5.5 0 0 1 .615-.09v.001ZM4.157 8.5H7a.5.5 0 0 1 .478.647L6.11 13.59l5.732-6.09H9a.5.5 0 0 1-.478-.647L9.89 2.41 4.157 8.5Z"
                fill="#000000" />
        </g>
    </g>
</svg>